<mxfile host="app.diagrams.net" agent="Mozilla/5.0 (Windows NT 10.0; Win64; x64) AppleWebKit/537.36 (KHTML, like Gecko) Chrome/128.0.0.0 Safari/537.36" version="24.7.14">
  <diagram name="Page-1" id="ah2bgRqDCw414Q6AoXfj">
    <mxGraphModel dx="1878" dy="695" grid="1" gridSize="10" guides="1" tooltips="1" connect="1" arrows="1" fold="1" page="1" pageScale="1" pageWidth="1100" pageHeight="1700" math="0" shadow="0">
      <root>
        <mxCell id="0" />
        <mxCell id="1" parent="0" />
        <mxCell id="Of4Tf4h-RsJ0xZ4RDa0L-1" value="UserA" style="shape=umlActor;verticalLabelPosition=bottom;verticalAlign=top;html=1;outlineConnect=0;" parent="1" vertex="1">
          <mxGeometry x="629.6" y="500" width="30" height="60" as="geometry" />
        </mxCell>
        <mxCell id="Of4Tf4h-RsJ0xZ4RDa0L-3" value="" style="sketch=0;html=1;aspect=fixed;strokeColor=none;shadow=0;fillColor=#3B8DF1;verticalAlign=top;labelPosition=center;verticalLabelPosition=bottom;shape=mxgraph.gcp2.phone_android" parent="1" vertex="1">
          <mxGeometry x="580" y="460" width="44.8" height="80" as="geometry" />
        </mxCell>
        <mxCell id="Of4Tf4h-RsJ0xZ4RDa0L-6" value="" style="endArrow=none;html=1;rounded=0;exitX=0.479;exitY=-0.008;exitDx=0;exitDy=0;exitPerimeter=0;entryX=0.5;entryY=1;entryDx=0;entryDy=0;" parent="1" source="Of4Tf4h-RsJ0xZ4RDa0L-3" target="Of4Tf4h-RsJ0xZ4RDa0L-7" edge="1">
          <mxGeometry width="50" height="50" relative="1" as="geometry">
            <mxPoint x="520" y="450" as="sourcePoint" />
            <mxPoint x="470" y="410" as="targetPoint" />
          </mxGeometry>
        </mxCell>
        <mxCell id="Of4Tf4h-RsJ0xZ4RDa0L-7" value="HTTP call Request" style="text;html=1;align=center;verticalAlign=middle;whiteSpace=wrap;rounded=0;" parent="1" vertex="1">
          <mxGeometry x="550" y="360" width="120" height="30" as="geometry" />
        </mxCell>
        <mxCell id="Of4Tf4h-RsJ0xZ4RDa0L-9" value="Call Management Service" style="ellipse;whiteSpace=wrap;html=1;" parent="1" vertex="1">
          <mxGeometry x="530" y="250" width="160" height="80" as="geometry" />
        </mxCell>
        <mxCell id="Of4Tf4h-RsJ0xZ4RDa0L-10" value="" style="endArrow=classic;html=1;rounded=0;entryX=0.5;entryY=1;entryDx=0;entryDy=0;exitX=0.5;exitY=0;exitDx=0;exitDy=0;" parent="1" source="Of4Tf4h-RsJ0xZ4RDa0L-7" target="Of4Tf4h-RsJ0xZ4RDa0L-9" edge="1">
          <mxGeometry width="50" height="50" relative="1" as="geometry">
            <mxPoint x="550" y="400" as="sourcePoint" />
            <mxPoint x="600" y="350" as="targetPoint" />
          </mxGeometry>
        </mxCell>
        <mxCell id="Of4Tf4h-RsJ0xZ4RDa0L-11" value="UserB" style="shape=umlActor;verticalLabelPosition=bottom;verticalAlign=top;html=1;outlineConnect=0;" parent="1" vertex="1">
          <mxGeometry x="583.5999999999999" y="50" width="30" height="60" as="geometry" />
        </mxCell>
        <mxCell id="Of4Tf4h-RsJ0xZ4RDa0L-13" value="" style="sketch=0;html=1;aspect=fixed;strokeColor=none;shadow=0;fillColor=#3B8DF1;verticalAlign=top;labelPosition=center;verticalLabelPosition=bottom;shape=mxgraph.gcp2.phone_android" parent="1" vertex="1">
          <mxGeometry x="570" y="130" width="43.6" height="77.86" as="geometry" />
        </mxCell>
        <mxCell id="Of4Tf4h-RsJ0xZ4RDa0L-16" value="HTTP call Request" style="text;html=1;align=center;verticalAlign=middle;whiteSpace=wrap;rounded=0;rotation=0;" parent="1" vertex="1">
          <mxGeometry x="600" y="200" width="120" height="30" as="geometry" />
        </mxCell>
        <mxCell id="Of4Tf4h-RsJ0xZ4RDa0L-17" value="" style="endArrow=classic;startArrow=classic;html=1;rounded=0;entryX=0.327;entryY=0.967;entryDx=0;entryDy=0;entryPerimeter=0;exitX=0.5;exitY=0;exitDx=0;exitDy=0;" parent="1" source="Of4Tf4h-RsJ0xZ4RDa0L-9" target="Of4Tf4h-RsJ0xZ4RDa0L-13" edge="1">
          <mxGeometry width="50" height="50" relative="1" as="geometry">
            <mxPoint x="560" y="340" as="sourcePoint" />
            <mxPoint x="610" y="290" as="targetPoint" />
          </mxGeometry>
        </mxCell>
        <mxCell id="Of4Tf4h-RsJ0xZ4RDa0L-19" value="Central Server" style="ellipse;whiteSpace=wrap;html=1;" parent="1" vertex="1">
          <mxGeometry x="272" y="250" width="150" height="80" as="geometry" />
        </mxCell>
        <mxCell id="Of4Tf4h-RsJ0xZ4RDa0L-20" value="" style="endArrow=classic;html=1;rounded=0;exitX=0;exitY=0.5;exitDx=0;exitDy=0;entryX=1;entryY=0.5;entryDx=0;entryDy=0;" parent="1" source="Of4Tf4h-RsJ0xZ4RDa0L-9" target="Of4Tf4h-RsJ0xZ4RDa0L-19" edge="1">
          <mxGeometry width="50" height="50" relative="1" as="geometry">
            <mxPoint x="410" y="340" as="sourcePoint" />
            <mxPoint x="460" y="290" as="targetPoint" />
          </mxGeometry>
        </mxCell>
        <mxCell id="Of4Tf4h-RsJ0xZ4RDa0L-21" value="Open WebSocket connection" style="text;html=1;align=center;verticalAlign=middle;whiteSpace=wrap;rounded=0;" parent="1" vertex="1">
          <mxGeometry x="430" y="250" width="78" height="40" as="geometry" />
        </mxCell>
        <mxCell id="Of4Tf4h-RsJ0xZ4RDa0L-24" value="Open AI&lt;div&gt;Whisper&lt;/div&gt;&lt;div&gt;API&lt;/div&gt;" style="rhombus;whiteSpace=wrap;html=1;" parent="1" vertex="1">
          <mxGeometry x="10" y="125" width="90" height="80" as="geometry" />
        </mxCell>
        <mxCell id="Of4Tf4h-RsJ0xZ4RDa0L-51" style="edgeStyle=orthogonalEdgeStyle;rounded=0;orthogonalLoop=1;jettySize=auto;html=1;exitX=1;exitY=0.5;exitDx=0;exitDy=0;entryX=0;entryY=1;entryDx=0;entryDy=0;" parent="1" source="Of4Tf4h-RsJ0xZ4RDa0L-27" target="Of4Tf4h-RsJ0xZ4RDa0L-19" edge="1">
          <mxGeometry relative="1" as="geometry" />
        </mxCell>
        <mxCell id="Of4Tf4h-RsJ0xZ4RDa0L-27" value="ChatGPT&lt;div&gt;4o&lt;/div&gt;&lt;div&gt;API&lt;/div&gt;" style="rhombus;whiteSpace=wrap;html=1;" parent="1" vertex="1">
          <mxGeometry x="20" y="340" width="90" height="90" as="geometry" />
        </mxCell>
        <mxCell id="Of4Tf4h-RsJ0xZ4RDa0L-37" value="" style="endArrow=none;html=1;rounded=0;entryX=0.257;entryY=0.111;entryDx=0;entryDy=0;exitX=1;exitY=0.5;exitDx=0;exitDy=0;entryPerimeter=0;" parent="1" source="Of4Tf4h-RsJ0xZ4RDa0L-38" target="Of4Tf4h-RsJ0xZ4RDa0L-19" edge="1">
          <mxGeometry width="50" height="50" relative="1" as="geometry">
            <mxPoint x="310" y="160" as="sourcePoint" />
            <mxPoint x="390" y="270" as="targetPoint" />
          </mxGeometry>
        </mxCell>
        <mxCell id="Of4Tf4h-RsJ0xZ4RDa0L-41" style="edgeStyle=orthogonalEdgeStyle;rounded=0;orthogonalLoop=1;jettySize=auto;html=1;exitX=0;exitY=0.5;exitDx=0;exitDy=0;entryX=1;entryY=0.5;entryDx=0;entryDy=0;" parent="1" source="Of4Tf4h-RsJ0xZ4RDa0L-38" target="Of4Tf4h-RsJ0xZ4RDa0L-24" edge="1">
          <mxGeometry relative="1" as="geometry" />
        </mxCell>
        <mxCell id="Of4Tf4h-RsJ0xZ4RDa0L-38" value="Send User Audio" style="text;html=1;align=center;verticalAlign=middle;whiteSpace=wrap;rounded=0;rotation=0;" parent="1" vertex="1">
          <mxGeometry x="160" y="150" width="60" height="30" as="geometry" />
        </mxCell>
        <mxCell id="Of4Tf4h-RsJ0xZ4RDa0L-46" value="Send Text" style="text;html=1;align=center;verticalAlign=middle;whiteSpace=wrap;rounded=0;rotation=15;" parent="1" vertex="1">
          <mxGeometry x="150" y="205" width="60" height="30" as="geometry" />
        </mxCell>
        <mxCell id="Of4Tf4h-RsJ0xZ4RDa0L-48" value="" style="endArrow=none;html=1;rounded=0;exitX=0;exitY=0.5;exitDx=0;exitDy=0;" parent="1" source="Of4Tf4h-RsJ0xZ4RDa0L-19" target="Of4Tf4h-RsJ0xZ4RDa0L-49" edge="1">
          <mxGeometry width="50" height="50" relative="1" as="geometry">
            <mxPoint x="340" y="320" as="sourcePoint" />
            <mxPoint x="160" y="290" as="targetPoint" />
          </mxGeometry>
        </mxCell>
        <mxCell id="Of4Tf4h-RsJ0xZ4RDa0L-50" style="edgeStyle=orthogonalEdgeStyle;rounded=0;orthogonalLoop=1;jettySize=auto;html=1;exitX=0;exitY=0.75;exitDx=0;exitDy=0;entryX=0.5;entryY=0;entryDx=0;entryDy=0;" parent="1" source="Of4Tf4h-RsJ0xZ4RDa0L-49" target="Of4Tf4h-RsJ0xZ4RDa0L-27" edge="1">
          <mxGeometry relative="1" as="geometry" />
        </mxCell>
        <mxCell id="Of4Tf4h-RsJ0xZ4RDa0L-49" value="Send Text" style="text;html=1;align=center;verticalAlign=middle;whiteSpace=wrap;rounded=0;" parent="1" vertex="1">
          <mxGeometry x="130" y="275.0000000000001" width="60" height="30" as="geometry" />
        </mxCell>
        <mxCell id="Of4Tf4h-RsJ0xZ4RDa0L-52" value="Send Translated Text" style="text;html=1;align=center;verticalAlign=middle;whiteSpace=wrap;rounded=0;" parent="1" vertex="1">
          <mxGeometry x="140" y="350" width="60" height="30" as="geometry" />
        </mxCell>
        <mxCell id="Of4Tf4h-RsJ0xZ4RDa0L-53" value="" style="endArrow=classic;html=1;rounded=0;exitX=0.5;exitY=1;exitDx=0;exitDy=0;entryX=0;entryY=0;entryDx=0;entryDy=0;" parent="1" source="Of4Tf4h-RsJ0xZ4RDa0L-24" target="Of4Tf4h-RsJ0xZ4RDa0L-19" edge="1">
          <mxGeometry width="50" height="50" relative="1" as="geometry">
            <mxPoint x="340" y="320" as="sourcePoint" />
            <mxPoint x="230" y="240" as="targetPoint" />
          </mxGeometry>
        </mxCell>
        <mxCell id="Of4Tf4h-RsJ0xZ4RDa0L-55" value="Send Audio&lt;div&gt;via websocket&lt;/div&gt;" style="text;html=1;align=center;verticalAlign=middle;whiteSpace=wrap;rounded=0;" parent="1" vertex="1">
          <mxGeometry x="422" y="125" width="70" height="40" as="geometry" />
        </mxCell>
        <mxCell id="Of4Tf4h-RsJ0xZ4RDa0L-56" value="" style="endArrow=none;html=1;rounded=0;entryX=1;entryY=0;entryDx=0;entryDy=0;exitX=0;exitY=1;exitDx=0;exitDy=0;" parent="1" source="Of4Tf4h-RsJ0xZ4RDa0L-55" target="Of4Tf4h-RsJ0xZ4RDa0L-19" edge="1">
          <mxGeometry width="50" height="50" relative="1" as="geometry">
            <mxPoint x="340" y="300" as="sourcePoint" />
            <mxPoint x="390" y="250" as="targetPoint" />
          </mxGeometry>
        </mxCell>
        <mxCell id="Of4Tf4h-RsJ0xZ4RDa0L-57" value="" style="endArrow=classic;html=1;rounded=0;entryX=0.03;entryY=0;entryDx=0;entryDy=0;entryPerimeter=0;exitX=1;exitY=0.25;exitDx=0;exitDy=0;" parent="1" source="Of4Tf4h-RsJ0xZ4RDa0L-55" target="Of4Tf4h-RsJ0xZ4RDa0L-13" edge="1">
          <mxGeometry width="50" height="50" relative="1" as="geometry">
            <mxPoint x="340" y="300" as="sourcePoint" />
            <mxPoint x="390" y="250" as="targetPoint" />
          </mxGeometry>
        </mxCell>
        <mxCell id="Of4Tf4h-RsJ0xZ4RDa0L-58" value="Send Audio&lt;div&gt;via websocket&lt;/div&gt;" style="text;html=1;align=center;verticalAlign=middle;whiteSpace=wrap;rounded=0;" parent="1" vertex="1">
          <mxGeometry x="422" y="380" width="70" height="40" as="geometry" />
        </mxCell>
        <mxCell id="Of4Tf4h-RsJ0xZ4RDa0L-59" value="" style="endArrow=none;html=1;rounded=0;entryX=1;entryY=1;entryDx=0;entryDy=0;exitX=0.25;exitY=0;exitDx=0;exitDy=0;" parent="1" source="Of4Tf4h-RsJ0xZ4RDa0L-58" target="Of4Tf4h-RsJ0xZ4RDa0L-19" edge="1">
          <mxGeometry width="50" height="50" relative="1" as="geometry">
            <mxPoint x="340" y="370" as="sourcePoint" />
            <mxPoint x="390" y="320" as="targetPoint" />
          </mxGeometry>
        </mxCell>
        <mxCell id="Of4Tf4h-RsJ0xZ4RDa0L-60" value="" style="endArrow=classic;html=1;rounded=0;entryX=0.06;entryY=0.367;entryDx=0;entryDy=0;entryPerimeter=0;exitX=0.5;exitY=1;exitDx=0;exitDy=0;" parent="1" source="Of4Tf4h-RsJ0xZ4RDa0L-58" target="Of4Tf4h-RsJ0xZ4RDa0L-3" edge="1">
          <mxGeometry width="50" height="50" relative="1" as="geometry">
            <mxPoint x="340" y="370" as="sourcePoint" />
            <mxPoint x="390" y="320" as="targetPoint" />
          </mxGeometry>
        </mxCell>
        <mxCell id="Of4Tf4h-RsJ0xZ4RDa0L-61" value="" style="rounded=0;whiteSpace=wrap;html=1;fillColor=none;" parent="1" vertex="1">
          <mxGeometry x="508" y="10" width="256" height="692.5" as="geometry" />
        </mxCell>
        <mxCell id="Of4Tf4h-RsJ0xZ4RDa0L-62" value="Calling Request" style="text;html=1;align=center;verticalAlign=middle;whiteSpace=wrap;rounded=0;fontSize=20;fontStyle=1" parent="1" vertex="1">
          <mxGeometry x="521.8000000000002" y="640" width="176.4" height="40" as="geometry" />
        </mxCell>
        <mxCell id="Of4Tf4h-RsJ0xZ4RDa0L-74" style="edgeStyle=orthogonalEdgeStyle;rounded=0;orthogonalLoop=1;jettySize=auto;html=1;exitX=1;exitY=1;exitDx=0;exitDy=0;entryX=0.5;entryY=0;entryDx=0;entryDy=0;" parent="1" source="Of4Tf4h-RsJ0xZ4RDa0L-65" target="Of4Tf4h-RsJ0xZ4RDa0L-72" edge="1">
          <mxGeometry relative="1" as="geometry" />
        </mxCell>
        <mxCell id="Of4Tf4h-RsJ0xZ4RDa0L-65" value="" style="swimlane;startSize=0;" parent="1" vertex="1">
          <mxGeometry x="180" y="470" width="130" height="70" as="geometry" />
        </mxCell>
        <mxCell id="Of4Tf4h-RsJ0xZ4RDa0L-66" value="We have Enough&lt;div&gt;Data For the User?&lt;/div&gt;" style="text;html=1;align=center;verticalAlign=middle;resizable=0;points=[];autosize=1;strokeColor=none;fillColor=none;" parent="Of4Tf4h-RsJ0xZ4RDa0L-65" vertex="1">
          <mxGeometry y="10" width="130" height="40" as="geometry" />
        </mxCell>
        <mxCell id="Of4Tf4h-RsJ0xZ4RDa0L-67" value="" style="endArrow=classic;html=1;rounded=0;exitX=0;exitY=1;exitDx=0;exitDy=0;entryX=0.617;entryY=-0.013;entryDx=0;entryDy=0;entryPerimeter=0;" parent="1" source="Of4Tf4h-RsJ0xZ4RDa0L-65" target="Of4Tf4h-RsJ0xZ4RDa0L-68" edge="1">
          <mxGeometry width="50" height="50" relative="1" as="geometry">
            <mxPoint x="260" y="500" as="sourcePoint" />
            <mxPoint x="160" y="610" as="targetPoint" />
          </mxGeometry>
        </mxCell>
        <mxCell id="Of4Tf4h-RsJ0xZ4RDa0L-68" value="Users coqui tts Model" style="ellipse;whiteSpace=wrap;html=1;" parent="1" vertex="1">
          <mxGeometry x="50" y="640" width="120" height="80" as="geometry" />
        </mxCell>
        <mxCell id="Of4Tf4h-RsJ0xZ4RDa0L-69" value="&lt;div&gt;Yes&lt;/div&gt;Send Text" style="text;html=1;align=center;verticalAlign=middle;whiteSpace=wrap;rounded=0;" parent="1" vertex="1">
          <mxGeometry x="100" y="535" width="60" height="30" as="geometry" />
        </mxCell>
        <mxCell id="Of4Tf4h-RsJ0xZ4RDa0L-72" value="TTS Open AI" style="rhombus;whiteSpace=wrap;html=1;" parent="1" vertex="1">
          <mxGeometry x="310" y="640" width="90" height="90" as="geometry" />
        </mxCell>
        <mxCell id="Of4Tf4h-RsJ0xZ4RDa0L-75" value="&lt;div&gt;No&lt;/div&gt;Send Text" style="text;html=1;align=center;verticalAlign=middle;whiteSpace=wrap;rounded=0;" parent="1" vertex="1">
          <mxGeometry x="317" y="550" width="60" height="30" as="geometry" />
        </mxCell>
        <mxCell id="Of4Tf4h-RsJ0xZ4RDa0L-76" value="" style="rounded=0;whiteSpace=wrap;html=1;fillColor=none;" parent="1" vertex="1">
          <mxGeometry x="20" y="455" width="437" height="365" as="geometry" />
        </mxCell>
        <mxCell id="Of4Tf4h-RsJ0xZ4RDa0L-79" value="" style="endArrow=classic;startArrow=classic;html=1;rounded=0;entryX=0.5;entryY=1;entryDx=0;entryDy=0;exitX=0.75;exitY=0;exitDx=0;exitDy=0;" parent="1" source="Of4Tf4h-RsJ0xZ4RDa0L-76" target="Of4Tf4h-RsJ0xZ4RDa0L-19" edge="1">
          <mxGeometry width="50" height="50" relative="1" as="geometry">
            <mxPoint x="220" y="470" as="sourcePoint" />
            <mxPoint x="270" y="420" as="targetPoint" />
          </mxGeometry>
        </mxCell>
        <mxCell id="Of4Tf4h-RsJ0xZ4RDa0L-80" value="Convert text to speech" style="text;html=1;align=center;verticalAlign=middle;whiteSpace=wrap;rounded=0;fontSize=17;fontStyle=1" parent="1" vertex="1">
          <mxGeometry x="107.60000000000005" y="750" width="176.4" height="40" as="geometry" />
        </mxCell>
        <mxCell id="Of4Tf4h-RsJ0xZ4RDa0L-81" value="FireBase" style="shape=cylinder3;whiteSpace=wrap;html=1;boundedLbl=1;backgroundOutline=1;size=15;" parent="1" vertex="1">
          <mxGeometry x="370" y="10" width="60" height="80" as="geometry" />
        </mxCell>
        <mxCell id="Of4Tf4h-RsJ0xZ4RDa0L-83" value="" style="endArrow=classic;startArrow=classic;html=1;rounded=0;entryX=0.5;entryY=1;entryDx=0;entryDy=0;entryPerimeter=0;exitX=0.682;exitY=0.05;exitDx=0;exitDy=0;exitPerimeter=0;" parent="1" source="Of4Tf4h-RsJ0xZ4RDa0L-19" target="Of4Tf4h-RsJ0xZ4RDa0L-81" edge="1">
          <mxGeometry width="50" height="50" relative="1" as="geometry">
            <mxPoint x="350" y="140" as="sourcePoint" />
            <mxPoint x="400" y="90" as="targetPoint" />
          </mxGeometry>
        </mxCell>
        <mxCell id="lfxfcSa1roLqG3c43I5R-13" style="edgeStyle=orthogonalEdgeStyle;rounded=0;orthogonalLoop=1;jettySize=auto;html=1;exitX=1;exitY=0.5;exitDx=0;exitDy=0;entryX=0;entryY=0;entryDx=0;entryDy=0;" edge="1" parent="1" source="lfxfcSa1roLqG3c43I5R-1" target="lfxfcSa1roLqG3c43I5R-9">
          <mxGeometry relative="1" as="geometry" />
        </mxCell>
        <mxCell id="lfxfcSa1roLqG3c43I5R-1" value="Flutter" style="text;html=1;align=center;verticalAlign=middle;whiteSpace=wrap;rounded=0;fontSize=12;" vertex="1" parent="1">
          <mxGeometry x="561.8" y="150" width="60" height="30" as="geometry" />
        </mxCell>
        <mxCell id="lfxfcSa1roLqG3c43I5R-2" value="Flutter" style="text;html=1;align=center;verticalAlign=middle;whiteSpace=wrap;rounded=0;fontSize=13;" vertex="1" parent="1">
          <mxGeometry x="572.3999999999999" y="485" width="60" height="30" as="geometry" />
        </mxCell>
        <mxCell id="lfxfcSa1roLqG3c43I5R-6" value="Coqui&lt;div&gt;Voice&amp;nbsp;&lt;/div&gt;&lt;div&gt;Conversation&lt;/div&gt;" style="rhombus;whiteSpace=wrap;html=1;" vertex="1" parent="1">
          <mxGeometry x="284" y="740" width="93" height="80" as="geometry" />
        </mxCell>
        <mxCell id="lfxfcSa1roLqG3c43I5R-7" value="" style="endArrow=classic;startArrow=classic;html=1;rounded=0;exitX=1;exitY=0.5;exitDx=0;exitDy=0;entryX=1;entryY=1;entryDx=0;entryDy=0;" edge="1" parent="1" source="lfxfcSa1roLqG3c43I5R-6" target="Of4Tf4h-RsJ0xZ4RDa0L-72">
          <mxGeometry width="50" height="50" relative="1" as="geometry">
            <mxPoint x="391" y="780" as="sourcePoint" />
            <mxPoint x="410" y="720" as="targetPoint" />
          </mxGeometry>
        </mxCell>
        <mxCell id="lfxfcSa1roLqG3c43I5R-8" style="edgeStyle=orthogonalEdgeStyle;rounded=0;orthogonalLoop=1;jettySize=auto;html=1;exitX=0.5;exitY=1;exitDx=0;exitDy=0;" edge="1" parent="1" source="Of4Tf4h-RsJ0xZ4RDa0L-61" target="Of4Tf4h-RsJ0xZ4RDa0L-61">
          <mxGeometry relative="1" as="geometry" />
        </mxCell>
        <mxCell id="lfxfcSa1roLqG3c43I5R-9" value="User Management Service&amp;nbsp;" style="ellipse;whiteSpace=wrap;html=1;" vertex="1" parent="1">
          <mxGeometry x="820" y="190" width="120" height="85" as="geometry" />
        </mxCell>
        <mxCell id="lfxfcSa1roLqG3c43I5R-11" value="FireBase" style="shape=cylinder3;whiteSpace=wrap;html=1;boundedLbl=1;backgroundOutline=1;size=15;" vertex="1" parent="1">
          <mxGeometry x="850" y="20" width="60" height="80" as="geometry" />
        </mxCell>
        <mxCell id="lfxfcSa1roLqG3c43I5R-15" value="" style="endArrow=classic;startArrow=classic;html=1;rounded=0;entryX=0.5;entryY=1;entryDx=0;entryDy=0;entryPerimeter=0;exitX=0.5;exitY=0;exitDx=0;exitDy=0;" edge="1" parent="1" source="lfxfcSa1roLqG3c43I5R-9" target="lfxfcSa1roLqG3c43I5R-11">
          <mxGeometry width="50" height="50" relative="1" as="geometry">
            <mxPoint x="890" y="160" as="sourcePoint" />
            <mxPoint x="940" y="110" as="targetPoint" />
          </mxGeometry>
        </mxCell>
        <mxCell id="lfxfcSa1roLqG3c43I5R-16" value="Update User Data" style="text;html=1;align=center;verticalAlign=middle;whiteSpace=wrap;rounded=0;" vertex="1" parent="1">
          <mxGeometry x="770" y="125" width="60" height="30" as="geometry" />
        </mxCell>
        <mxCell id="lfxfcSa1roLqG3c43I5R-20" value="" style="endArrow=classic;html=1;rounded=0;exitX=0.946;exitY=0.083;exitDx=0;exitDy=0;exitPerimeter=0;entryX=0.5;entryY=1;entryDx=0;entryDy=0;" edge="1" parent="1" source="Of4Tf4h-RsJ0xZ4RDa0L-3" target="lfxfcSa1roLqG3c43I5R-9">
          <mxGeometry width="50" height="50" relative="1" as="geometry">
            <mxPoint x="680" y="440" as="sourcePoint" />
            <mxPoint x="730" y="390" as="targetPoint" />
          </mxGeometry>
        </mxCell>
        <mxCell id="lfxfcSa1roLqG3c43I5R-21" value="Update User Data" style="text;html=1;align=center;verticalAlign=middle;whiteSpace=wrap;rounded=0;" vertex="1" parent="1">
          <mxGeometry x="840" y="305" width="60" height="30" as="geometry" />
        </mxCell>
        <mxCell id="lfxfcSa1roLqG3c43I5R-22" value="" style="rounded=0;whiteSpace=wrap;html=1;fillColor=none;" vertex="1" parent="1">
          <mxGeometry x="770" y="10" width="200" height="690" as="geometry" />
        </mxCell>
        <mxCell id="lfxfcSa1roLqG3c43I5R-23" value="Update User Data" style="text;html=1;align=center;verticalAlign=middle;whiteSpace=wrap;rounded=0;fontSize=20;fontStyle=1" vertex="1" parent="1">
          <mxGeometry x="781.8000000000002" y="640" width="176.4" height="40" as="geometry" />
        </mxCell>
        <mxCell id="lfxfcSa1roLqG3c43I5R-24" value="" style="shape=image;imageAspect=0;aspect=fixed;verticalLabelPosition=bottom;verticalAlign=top;image=data:image/png,iVBORw0KGgoAAAANSUhEUgAABLAAAAKjCAMAAAA6bQbyAAAC/VBMVEVHcEz/hiHrQTbpQjXqQjTqQjTqQjXqQjPqQjTqQjTqQjTqQjTqQjTqQjTqQjTqQzXqQjTqQzX4jRPrQjTqQjTqQjTqQjTqQzXqQjTlQjTqQjTqQjTqQjTqQjTsQDR2eHDqQjTqQjTyQC3dSENbetdjeM44if9BhPRFh/9ChfRBhfRAhvRBhPRChPBBhfREgPNBhPNAiPVBhfNBhfRBhfTeR0JBhfRChPRBhfRBhPNBhfNBhfJBhPNChfVBhfRChfdBhPTgR0FBhPRBhPJKdZJBhPNBhfVBhfTdR0KtXHNChfRBhPTqQTXpPjfpPDfrSTPtUi/uXSrvZSfxcCLyeh/0ghv2kRb3nBH4pA75rQv6tQf7vAX8wwL8wAPxeR/6vAX7vAT6vAX7vAX7vAP/uwP6vAX6vAT6vARBhfT7vAT7vAX/vQD7uwP5uwX7vAT8vAVAhPX6vAT8vQf6vAX7vAT7vAT6vAX4vQb/vAD7vAT8vAX7vATxdyD7uwVChPT7vAT7vAX7vAT6vAX6uwRBhfRBhfT6vAT7vAX4uwb7vAT7vAX6vAT9vAT/vQGfsykyqFMzqFM0qVb/vQArp1YxqFQ0qFMzqFMzqFI0p1Isp1Yzp1Izp1IzqFM0qFIzqFIzqFIzp1M0qVA1pl5Bh+lChPehsyiksyeosyU+p05iamYuolEzp1I0p1JZZmQ0qVA1pl5gZGheY2heY2hfY2hfYmddYmZfYWhfY2heYmdfY2deYmZfX2pfY2leY2dfYmdfY2deYmdfYmhfY2hfY2deY2deYmdfYmdfYmdbYmheY2deY2deYmdeYmdfX19eYmdeYmdeYmhfYmhVVVVeYmdeY2deYmheYmdeYmZfY2hdY2ZgZWlfYmhgYGtgY2deY2hfY2deYmdfYmheY2htbW1eYmdfY2deY2deY2deYmheYmhgYGdfY2hcY2lfYmddYmZfY2heYmdfYmhfY2heYmdeYmdgZWVeZGpeYmdeY2hfYmheY2deY2hfYmheYWdfY2jOTTulAAAA/3RSTlMAAxIjN0ddcYGao7XG2Ip6ZisGHL/n+P8+CfGR4K0NAc9S//+J//+fBv+oC7sRwhbOGcm0kf94WvRC5CT6S+kfiv9lKANvNNzXFuyB////////////////////////m/TptoJHGP52NdXYkwtBLvdTT3of7pee+yMR4F3PvoktqMhM8muXO32/JzuPr////7ldD//////dlEb/omo568WBT////////+clBRb0IAzr6xYzS1ptcXBkUkAhCS9poc3v+//z37mGRBM20eimCL39gdsG1uuMHDzIVzqXDydPf7SU+AeR9uOqXxglcyOaOK/Byv7HehErn5wpnUd2LMsu/UPDAAAmy0lEQVR4AezBRQFDUQAAoG/PtX/ZWYfdgAMAAAAAAAAAAAAAAAAAAAAAAAAAAAAAAAAAAAAAAAAAAAAAAAAAAAAAAAAAAAAAAAAAAAAAAAAAAAAAAAAAAAAAAAAAAAAAAAAAAAAAAAAAAAAAAAAAAAAAAACA/zmv+wkx5VJb672Pn957a7XMtcObvbtAdFVXAyj8l1KopV6CQ4+7u753df4jupbjfvZuupuwvkEsiIfLoCdnCgBW6zAajjZqm+hvSrZqMx4u0n4mBwcAQRjNJirXPyVRm2KRBnIgALBaRsVmq08sn44WYSZ2AUAWxmOV6FNLyioOa7EEAPrRWOk9KqvFspE9A4BVONwkeu+S6TDNZG8AYJXOlLZGFYNa9gAAeuFMactUka7kdACgP2/1QbTDpZwYANS7KtcHk0yiQE4CAPpDpQ+snC3lZwFAOs71GUiqQU9+HACsdht9ZqZRJj8GALJFq8+UigP5PgAIYqXPXDlfy7cBQBYrfRTKeS1fBwC9hdJHo4wz+QoA2E31UVFRT74AAMKJPjrTVD4FAOtRoo/RuC8fAoDeYquPVD7P5B0ASKf6iLUDMQAgKBJ93EbsygLwn53SR6+MBACCkXbCeC0AOm6gtAv4yQJQF9oho0AAdFbYaqeoVDoKwCLXjknmjXQQgGCsHTRZCwCGg44oU+kYAFGuHZXEAqBLejPtsFEmADojqLTTNn0B0BHLVjuuDAVAJwy22nn5TgB0QJRoH8TiPQCx9sK58xfEcwBmvvTq4qXLV8RjAFYjf3p19eq16+ItAKvKo17948ZN8RSA2q9e/ePWbfESgHrjU6+MO3cFgBPoFcUCnEGvKBbgAObb37t3UwA4gF75t1YIoBn52Svj/hXxB4CZr70yrjXiCwBzf3tlPBBPAIg86dVD06sveSReADBIvO6V8Vg8AGC59Xs8aDx5KgCcFyjf/6+MZ88FcBx6E/97Zdy5Lm4DUHShV8Y1cRqAqCO9YqnQfUCYd6NXxouX4iwAgepKr4xXr8VVAKru9Mq4dUXcBCDuUq+M/4mTAIRJp3plvBQHAajbbvXKeHZX3AOg8KFX/ze9+gn3xTkAdt37vzJ+EccACMru9cp48qu4BcBYH1xStptqNJvPF/+Yz2ejatKWySHHg8aN3+RrADAgzNtqGKXroCef6NXrMJpXbX6gXhm/y5cAYEC4nQwH/Z58U7MezKvtAXplPHku7gAw0geRTIdpID+oTueb3HavjPuNuAJAqg8gnyyW8pP6UZXb7ZXxWBwBYNVq66ZxX05kvdgkFntlPLstTgDQxNqy7SiUk2uWs9Jer4wHAsAJ61xbpeK1nErTBIvWVq+MF38IALZgtVEme7DabSz1yrjRCICOz7i30Ur2pNlNLfTKpXl3AM1GW6OinuzTrrXRK+PP6wKgu3vc83kte5bFWwu9cuRJCgCZ0paM+2LBerT/Xhmv7gqAbl6LrHZiyaC10CsHrksGUJfaiiIQa7LZvntlPHktxwzAXNtQ7sSqVJ2iV47uHgUQbLUF1VosC0Z76BW/WAA/WEksB7D4m727apRah8IwvM7B3SkuV0w37u4Oacbqaba7Oy7/HNnummYy5Xtue//Wkqxj6+0VHrEA8IB1YhNpsfHN+nqFRywA/CLcuYE0eXvdVu4GGQoAjp6wVNt+irTJ3bBVe3eVzAQAmy3Vdp8mnW7Zqr0nADDSf2csxbaQZs8e2Grdu0gAYKJNlmJ7Sbvbd2y1nhEAmGiHtVLsD8fhszkOY8yadngzVcBDxcW68oLMAwD7Dq8oVQ7nDrPyhWKxVC67E8rlUrFYyFtjVx2mrVcainWXzAMAx62ljcXIKhTLnh+EUSxEMosUcRQFvlcuFfIO54f3UoU8fGCrVEMAUF2LRpnDnXyh7AVRLGSSSCnFAqSUY+WKAq9cu58q5batEqaqAhho85KxKrp+NJYqsQJ/u1VX39DY1EwV8RIrGwAy7uBitWKFsh+JsVatRosQor6htW0/6ffEVqg9R0YBgNP7Di9YK6vohWOxWrOOzqYu0q3GVughmQUAdltzMc7GaiXFenV0du8nrc5fwWd3gH/nKHfGecEdq5UaHY09pNHp+49sZd5dJgAwd5U746zkx4kUyrSI3oa+LtKnP7Or3QFg26xc5cuhTIRyHQODVfnh/ToBgJmLsBgvuFEiRSqGhntIk9ylbC7FAoCzM3Lljb0LpqV3pI30eH7HVuUlmQMAtuvJ1USyeqpt/egFAgDDphEynnfHcpW20eEPpMMFnO0OkNV/hJyVo0QKLYYaP1bVS+EzAgCDDmpgvBgmUujS8ukzpe9W5v4TAsD+XYwXfJEIrRraKG25dluNdxfJCABwep/DynEidKtr7KKUPczafkIA2FIIEikq4Es3pew6BhQCZMzXlT9eKTb6rYtS9f1Bls6YAYDmH1KKivnZQ6k6Z6vxm737Smokafcw/mcLbKAuIfEuGgFqi4uAJeQFphFCg4eGFigab4ce72fO+bzb5ee9LaneLKmo57eIJzKz3qwcnlDTATg/8k11camQJgrOxrNRNReAtuWSb7bTqgK6clZGOgWgiVaWfAuolRXOScFZ6ZsQgKYpV3xLuDjOxu+Sx8cEoEmOL3yrWI4UyrWzU5wWgKa48S3kdF2h9DlDI5FSB6D9wLeU25VsPKza1a2UAagu+RZTuVMY3ePOUt+gUgVg5cy3nKOywnjhTK1NKEUA9mq+BS1uKIiZojM1e6LUANir+JZ08VohTA05W+MnyieAXoUv1hNHsQB6lZFinRQpFkCv7F3cy1405CgWwPdBe4tl2Zt35mafC0Bg67e+xR3dydyYszfQLwBBtZ36lldbCT87aqGvWwBC+tBnwG27rHW5ALoEIJzo0mfCgYxF0y6EeQEI5vzQZ8OujM24IEYFIJC7fZ8RpXPZ6h13IRSuBSCI9ZrPjMU72epzQcwOCkAIBz5Dausy9cKFMTwlAPYufZbctMnUKxfIvACY27zwGbIqY9cukOKYABhbr+W6VxosuEBm+wXA1rt890qday6ULgEwtVHKd6+kHhfMqAAYqlby3it1uGCePRcAOx/mvlead+F0CYCZ+8Pc9yp65QLaEQAj7bXc90racQHN9gqAjVV6pWjMhfRCAEzs7dMracaFVDgRgHzdIdxVOCdFF9KwABgoH9Kr8MFyTwUkhmiJ/WCMuzmJDXQqKQCvWV/90eCcC+uVEgLQdkav0gnWbLeSAbBNr1IKlpuWAYAFFr1KI1jj3UoCwDa9sgkWp1jhAWf0yiRYnGKFB2zQK5tg8WOs8IAHepVmsIam1CgAm1v0ym5wNIYxAWjV//ZtLVZqv1dZXCi1eq/U3zcw+6zgwupSgwBUF30wR0vLx/d71fW231uv7pW3dx8qJcNe2Zua6u59fj06Pzzrgik8V2MAHPswtm5376v6F+2bl0v75r2y1z0z3VNwYTxRQwBEtz6E2u6d/qO9y1uDXoU3MT3kQljrVCMAbB56e0vn7frv7g8u7HtlLxrrKnLsDrSMZW9uaUMx3B0cGvQqvJkuZ65DDQDQXvHGaueKqbxk0avwxvqcsWe9aj6AKfetm3XFd7zo/4cbtYCp6Tmm3YHHN4RVK6suew8W66vwJnsYxXpswI7wzbrqtXposL4Kr/OFszTXKwB1isolb+fwUg04X7ToVXijhcfzCjTAN8KLbTVks2LRq/Cux/lO2ExAdObN7N+rQXe1LPRK0ck4f8VqIuDtlmWvGrZSsehVeJbFulazANwj3NpIFM4ji16Fd/KM+4RA9t+nLx0rkfKFRa/CGys4Iz1KC8BQg3VftkvGvQrkFcPuTQLcbXkbD8bfK2/Usq44xMo2cIR1tKLE2m4z0St1D3CIlWXgXk7pXAbuLsL3ysJMgds5QDPcehMHMrEavlcm5p2J2U4BSP1v7osrMtF+loleqXvNWShMCEB8RhcJV2VkI3yvTIw6E08FIO0z98q6rCxloleKhjh1B1L3zhsoXcrMvV9WFuxw6g5k84n6o3WZaT9XJkwNOQNDkQDE1VbzBpaVQ6+cgfFeAUj1I+HWW+VQ77hLrjghADFFd4c+uQfl0lW6rxMCeO0NHCuXxpyBVwKQ5lTDxYpyqXOWuQYgVas+uVvlVIdL7koA0rz6vKt8ikZdcsMCENepT25DOTVZdIn1CUCK/2rYX1HDOMRamxKA9J74qkXKq+EUn/oC0FbxiZ0qt164xMb7BSCe9SOf2Ds1jts5hecCEE/VIFiXyq0dgpUx4CrhtnLr2iV3IgDx7F34xM6VW5MEK2NAsMrKredFgpVvIFgECwDBIlgAwdpQbk0QLCBFK/scuicww6F7xoA5rGM1jl/4FScFpIdgrSq3RhkcBdITtVd8Yh8ot564xOYGBSC9V76WlFtXab7zBeDMJ/W+sq68GnKJzXYKQExLPrGtO+VU7zOX2EAkADEd8MpXc+8+9whAXO98cm84c29clwDEFF36xEqVNuVTj0vuhQDEte2TK5WVS4MFl9y0AMR1X/LJLfOD5IaNCkBce1s+uUo7O8JGzQiA4SsUMbxWDp0UXXKFQQGIK7r1Bh6UQyPOMTcKpOvAG9jaVO4MzjnGsICUrXoLB8qdeWdhRADie+1ZYjVvgeVeCUB8bxe8hQdOsBpyLQDxNfRHLH6UPFNwFub6VQcAD95EpaocmepzJoZUDwC73sYbrj3X70r1ALDhjWyzIeRiDhD+pS8bi3fKid41Fx9P5gCWbr2Rs6pyIRp2RtY6VRcAy97KQzsTDXXpUH0AbHgzB4y4c4TVOsAPG3ijcNrFxyOqgLlTb+egnfVVbH2qF4Bjb+ihqkes88oZmle9AOxdeEO1TT1ag8PO0ozqBuDWGyrtH+uRGltziTDUABi49LYOVvQIdc4XnakXqh+AvQVvqnR0rEdnbMgZuxaABix5a0v3elQmO5y1gSkBaMCxN1c6vdejMTlScOaeCEAjqove2vuPPv7k08/0CHSOdcXPVfiLzwDemPfq84+/+PKrr7/59rOM12pmfsAFMazGACiXzNdX33351R98/f0P/5fRaHWfjF6tuVB2BKAx0Zlxr/6wvvqr///R9z/+4dOfBLETwtPRV/MdPeNFF85stwA06DhgrwL66c9+/guXSfMC0KjqUYBeESx+1BAEcJNmrwhWhxoGIFrZt/s++N3/6BXBKs4oAQAfWH4fJFjMNIQEvL0IsB8kWFwjDAJ4YzYvSrACL7AAvF0wWF/9MsZ+kGCNKSEAHwTeDxKs8AssgA+F8ddXf+oVweITYXDATRr7QYLVoQAAxt2bMM8QPFgMuQPcKHz/ebz1FcGalwUAbbcB9oMEK8hvGgCUDwPvBwnWjowA+DDsfpBgdckKgGolZK8I1txzmQFwHvL8imBNyxCAg3DrK4LVEwloJjaFsXtFsOYmZArARinQfpBgvZIxAO/C9IpgdckagPbbEPtBgjXbL3MA3i7ar68IVvFaAQA4L8VcX8X/nwzBmlYQAJZ9HHWsrwhWh8IA0PZgux8kWEPdCgRAtWY5L0qwxicUDIC7xf+1H/xV7F4RrMK1AgJwv/Df94N19IpgjSooANuHRusrgjWtwABc/pd5hjp6RbBeKDgANxb7QYJ1FSk8AMvJ11cEqysSgGYV6309vSJYXZ1KB4DlMPvBAMGiVwCWw6yvAgSLXgG4abxXBOtKqQJweRhiPxggWMwzAIi2F4KsrwIEi3lRABuL9feKYBVGBaAJ7mr1zl8RrPFrAWiK6ml951cEq++5ADRHFC3Xc9+ZYHV0C0DzbP86bq8IVuGVADTVbz75KhaCtXb9O/bt4iCSBQqg6Mukdri7u5PMj6BDwKmmvXc4hPht3H2m5Jwg7u4G8IfddgTra/QOB/CnJclVKlhfsjIbmQDcVQXr8yYXIyuAbipYn7awERkCnFbvBesTelcjW4DmsWB9zNhyZA6QnKSC9b6Vmb7IICA57bQE621zU+ORVcBD9V6wXlkaqEQS2QXc1O8F60WudiLrgJtqS7DmcpIr4KGTljtYK1OVyAvg9KRd3mCNbY9GrgDNaquMwZobWO6LnAGS5O7k+L5cwVoa2V6NnAJuGsf3ZQnW0shMJXINeGjUW8UP1sHk9mYUAHB61TluFTdYcxNry6NRHMDdv9FK74sWrKXdycPl1Sge4PbmqlNvp/dFCNbcwsTA4V+VwSgy4PGh2W106sftdpq2fomn55WDX2Nhd2xksndte3Z+sRypApJkK4mIrcfTu19k9BcZHtyKJHE0AwAAAAAAAAAAAAAAAAAAAAAAAAAAAAAAAAAAAAAAAAAAAAAAAAAAAAAAAAAAAAAAAAAAAAAAAAAAAAAAAAAAAAAAAAAAAAAAAAAAAAAAAAAAAAAAAAAAAAAAAAAAAAAAAAAAAAAAAAAAAAAAAAAAAAAAAAAAAAAAAAAAAAAAAAAAAP+wd8fNhSRvAMefd+LNeLP5QxUkAcTMM4hDiECSRcQkYDdBsmw2R7Z+u8G0HtN6JPZXXD2f//Y2nVHq7ns9Pa1ZcLo9Xt/h0fHxkT8QDIWBEEJ2kjMSPYkpKhq0eCJ5moIdQwgh/yTTKlrIZAOuvcyvy+CE/xBCyJkvl0eh+HkI9o63YPDAfwYh5MJfxPVK5QrsGR8aLuG/ghByeoVymWMn7JVrNHyB/wZCSKqK9uQiFCyxg3DttzMH/D2EkGAB7dL8FCwLjvpNI5tLxxVFKRVit83oZQ3+BkLIsY4bqN5RsHhnwftYC03anW4PLHxtzty7YYd4q80/qt9gtxHibOJmEikK1pKHRhGtlR77sOIU5+qwQ5I4k4adRsjZAC2UisPcbSL3FNdxVaxGwVp4aGoo9jzwgEkQZ1oPsEPOceY77DJCwqu9amejnt4dvKs9eJNDHXmjAwrWTLih4Hp6eUzB+lsI9UodBGpg8mNUxCXfYIaCFYyhXDFIwdoKQhxZ5ORPImDF1S2u9IqCNdLRDv2YgrUNhCSR8xQEEVejhe+O4B0Fy5XFFbqiKFoezcoUrM8jxIecsgvW+Ce2NL+iYPWGyFFyZd/lj0qoEoqcRh9jKi47cVKwPomQuoJLtGtYr3Zi9IqCVUnjEq0TcJtO6eHX/apnFKxPIeRgiEsylyBVHsE7ClYqhox2X7c8/CKNTJeC9SmEHHO98oBtFKyzBDLZOlgLj1o491KjYH0GIZUSMkof7KNgPaKh5AOxfhHf/XQABYuQz6gi8xwACpZ9fjTE6rBOL4e/PTqAgkXIZ7zqyJwDBetDDytux7BeLYdYpn1YW0RogjV0UrDscyRYr8IgM043gYJFyOf0FDToHqBg2efDhSsXyNUcFCxCPukQmSZQsOwLF3CuXQG7KFiEfILjOxqUEAVrA1Gcy3uBgkXI/0Nd/ZsTLIf7a8Tjea24NhrzsPGYWuj3kHrqU8F6v2zdDXbdFXHuEShYhPxfRNGgRmCbLvrfOulMCxFVpTAsB9wgd+A54sb0QK52c/89riGi3n669559KFj16Mnssnom9q+vAnZ4ca7U+yvBOni4OUw+Pv6sNvzBHvwNvclh+fcFyoeTyn4Ei5AOGq4cWz0vOI28UnYC64VG6WfTmI5X8qIi921cVpzWACAwzM0MD+XBOvMldFymnAQ3eecasP1gOYL3aR0N2rDxBhZeg5d/BL+CFec/87+26l3Kn1BwQcsd9nY/WIRcFNAwgq0JWZ8XPPSCWOVesRwTALHQi4pmxQDAES5UpcEKpHHVIAISbmWRt97Wg3XRvUIz/dai9wOceQEr4zaKTgJyTePIy5yPdz1YhNRbuJDvw7ZESyjQeRCOyaDAoL7hdcrgx4V7SbBCHbSkTWG9AM6dwLaDFfwuf/P4YP27YbC8aVxVuAGAox0OFiETNGRcsB3uAYplAmAl1UGx0rXolBuB5pHdYJ22UaTjgnWaODfZcrAOkioKlLqCYP1cH6xj4DjO82gp6QA/BYvsx5r7ELYjUsS1prDqNY1rNWBV5QqFFJvB6uoolquBmDOGM+3adoOVusU1yo7PB+suiyL/ws1+BIvQ0cj/gogjfLZe2AmGywxKlMGs30aJezB7KKKEPFh+XOv2zsYHBAaw1WC5n3CtF+dng3XWQbFRf4eDRci/dj73/KUo03HCXKSEUkng/cggblo5dxo/HawbFdd7BKFLnJtuNVi1K+TorZaKnOong+XIrruCWlYpWGQvdjUcgsgEZZQUzPQKKCS6lLuINhzBsrMhfjpYPxQ00XXhCzXr4px3m8FyDJBp3R4GQ71e3dv4jktGnwvWOTJ64mh2hWQMF553N1iE3KLBDyKnKKPW4Z0zgZx2duSbBKL3TyofhktgHLemMZ3fY26iZdMYNQhL7s1jptengaOT+AbBCn/HZdog+qVe70ezGjKtCAiMcEZ93WawRmhQ79lvdpwm0JA//UywJs8sTT/fYME5ySFDwSK7H6zoJ4KFfXg3xWW/umOY8zxy+Sm6wHCIy9L+FMxFmi1cEh+DwcuP6S7GuK6fbAdryuXw/ivMhe7z0vN2WDEV9xaD5VFxIf0FOL4SLhTGHw9WrYALcS8sc0S1/3qwCM2w+BujBw0ZfXoAS/pcSs5hIaQgo4/uYInnu/UyVq2AjNoIA3PRUO0FK6QIv5TZq6DBB9ZecCbu2l6wHENc6NTA5C2NC8mPByuJC1cVMAmWdjxYhHS2NMO6MS/hYya47vtGtZDV+YGKF3jhE2RaX8FicqQFgHfdshWsMjI5N3C8Oi4UwmApizPpi+0FK8B65YQVlSLOaQ8fDVZFw7mnFKzoKxQssvdPCe0Hq95a+2UWzuzqdImblGlBMHO8WDwgq7XRoE/AzGcnWO4SGoY1MLlHQxcsJbYfLHbSz3fLSr6WcK780WCd41wmBBYCeQoW2Zd9WC+fDlYZce0RUeErNGTGKw+t8gFYdTfEObZe5Mf188KyjWB10RDvAa93nJZ8JJylIn2wtWB9WeRCqUtOOG3XPhascBznAmDpkYJF9n+nu801rHCc64SFtxYaruGPi6Js11NdWVlmG6KhAxbOivJg3aIhAJz+YwmXPPfBygm7ZdxWsJrST6En+Je8cbC8OJcAa5XSLgeLEC8aMrWN92HxFbhEQzsFlspoyMIfnmdcUCrSSeAt/PFVx4VWHaxcS4OVKlmHutbNPSPvZe1cJDPeVrAOFpnNpIRD8uw1bR4slsTnCQiUdzlYhNR1XHj+AgLugKWb6bMx9hUARvL1sJCGC/Gwafm8LP4QDN9UPxpOwNJBURasoOUiVT0ZxxVp17qM6qFtBetNlR786ojhTPHsI8FyLoannSAQUXc4WITcxdEw+vj0TOtxd1nqDxAYmM437bA/e0Aga/qZR9bYIFhLyoL1DRe0CsxceDstXPE96l7/3R2X2wqWD+eCINRgG3U3DxZ7RlgGEWeRgkX2ZF/Dd8eHV+wLLnbG+dr/g0f5pSNHGheKByDQRYOPX8JquyQxEAaLRS8G7yrf0rhCOwk6ZLHubitYSelNJhuD3o2DxY8W+knB+q+iM90T3DpQr2TjgWOfP2YmlREunzMRlTtm5iyOC7cg4FYkwbpl1zUttDPFUQiEXlV2ge0Eq2MjFT0NZw4/Eqyu/DaWDvAje7OIhU3YyLiEC1X+N41ApKLgQpnfhZUEEXeJe4U9BVEWi4uiJFhX7HcYC+0cfXAThjVci2z+cmwpWEMbJ5iGiziT3DxY7D64PQYhOg+L7M/3EvZgE15+v0GE+6PAOM7F502VHYzAT6lO+O2pUxAZSoIVw4VsI44r4sk3ux9q0utbCtaTpMLcDzU/Eqykjb1jX3Y6WIQcInMPmzjhF8PfpLvD+X1XWbvBAjZmAACvOi4cgUhOHiyxYXcMUlOc+7alYF2x216x3GeCVWZLjBQssqd6Chr0CFiQ390VLuzOsFwFXKjaDZaTjcn+/WApPy/BDk8eZ2KO7Qbr/O8Hy0HBInurioLTVCQapsWv17wsJPzK/D1/ezcCkVSGi1xIk3/80XElCdYvtBY7qoA9B2mcO93uLWEThNjrvv9IsM5xpngBQpc7HSxCWDQECZBPsDBo+gdVe0/8uH79BJFXnVuZr7F+nYCAqy0JVgItaJ2JE2wb4VxiO8HKsceW8glqw1aw4nywjmwsugd2PFiEPCLzHACbsmgoXrDnZpJ/27to6PLf4yp+2hZAQ5Tfu5UWjfmhSoL1givi53XYRMgIfWArwcrizC8QYls/o3ywHsGKO8MHy8e2nQpNdzxYhFQUZJQvYIt/9Yu7htzucWsvwpmO/mDjnjXI75bX69JXJwjWFHn5nK8GUoJkF2rbCNa5jWe1E5yb8MHKgpUHnQ9W30ZhT3Y9WIQc45LMG9gw0dFQcq8cInUI1sYZ06gknz3R7R0XwoZ8zK0sWBNclml6YHPsQOOTbQTr2sY+9PJiTIgPVmL9vpNj03baexC5K+x6sAg5GCJ/VKiUV0OmsXrrlr6TpjFn3ssVd9k8ASeIsvNA33RJsLjz+2JRN3zICR9oqbOXoDhYbOPtiXxTSPqAD1YMrCRNwXJcSc/EuczvfLAIedVwiXYNEn4dDeyGyK3Ipli9DBqOzFMunMq2mmKDO4ZOvAkqu9F5WC9g6XoMEuxYeDUAcmcDLPXFwXKm2Tk7stW8pukOO2OVXEfaFCwoS+8JX3D3g0WIDznlMKxRq+KygNUHqZU3YUj4JasTNGgeyaqX+rpyqpZmdR1vfqMTR/NesNDF4qn9TbetGzu9Qlas1WBBUrZ/1/kL5ybmIZew6vTZHKxLnHtyCp8YU7DIHkgi5ykIQt606Hy7U2TSlbU7t3Bg/DfEFCzGfEMmAezkqIW0G8weMigLFj+1a1tcN6gh5ss1WMuRYDGNwnqVHCIrlkWw2JYP/QtYOlq5E/av+yRmDs3BOihK7mEHSMEi+8CRRU7+xAOW+gPkpMdgcAyRiVUsnpgzRhFzyKRDYHL8jMzEYiqHV27gVdIoDxZfzyc3mEyU2Qs6lVSojYbyGaxxWkBkxbIMFrtNLbjBQrC1ssm2v2YB8BpXggVH62ezh0jBIvvhLoE8dRAYg0nPl3hGTumH8CzlQhCWjR9xyQAWgs/IxE/X3HwmHDAX0ZEpfuGLWkRbwXJnkIl5+Hwf64tw39dgnaCOhu99EKklVWStEAWL3cMNLa7qyeBcJrX6BHW6bp55vLL3HeMPsOJGp2CRfVFLoFk7G/X0DuCdKxT8NiihiRIETpZLXvMrLIR9XEe0OndkHJOv1llDA9yYVkRwB6snK7DgPm+hvWCBn3tBDTcYJjlkipe2V//U5gNYuesWkWnXrYPF3ZE9PYDJacnqSUMH57RL4Lh/IXNs8Zi24AETXwspWGRvuDpooVS8uh0MElcFDRlRr6DX5v8+2/W4a6mQN1lEziEwqbjp8zH+9zET85gpMK4Y/yJPfG+/x9QD1Qyi3WA5+EJnHq9//45xaDK6Qo53g01sSvWLA0x60TT3Wt9AGKy6wrJ2DcvOpjouXN1ZfQogcwpLvj6hZbDOYrig+WFZrYxIwSJ75KCKMoJeMacq8vJau6SjSdYhuK1iY1poMuDG/FCQp2ptRUdGFiy2AMWoVtedgsShist+JU8rTiOsEX+nhMvawkV386zvdnIAc+NuGg1ahD9HcEEvh4yfPyyhdbDA00JDznsGc+5oASlYZM8cq7iBggdW+VFu6AJOF+WeasDxqiglCRZcaij1CFI+DXlK8falXC7fZ4dtFXnpOqwLFjS5H276g5HI5DDLlbUrPM5MG0xv/on0u81FxfTVYEEUlxSrv6/gmRxnM0a0nylYZG8EC2hbogJWpihz5QaTI5SJ9VYyoX46WODVUOLFCXKXBbSp44b1wXIOUGIKnHAahW4fLYIFZVxDm+YpWGR/pKpoT6vhBGtRVRK6lGjrvFiuJ5/YbB4sebHKDrCj10E7tCMASbDAJSlWY6WWKgq0e2WrYDmaKNZ9QwoW2SenV2hDzgNC3gyu0TwDC5M4rvEYBgtB4Zhc0mawoF9AMT0KdnXbKHX7BvJggbOKYvohrIiKeuWBKhcsQxJFRtCnYO0XcuYvokT62gFrhG5RpO0TjRmgSKa74XVi467dYIE7iyLpS7DPXdZwrVhAfFoDL6qgQDEIFkZoJf0G0LQOFvgVtKL56YjkPUTC3eEzCuVzvjOQ6Fo3T6tWQOjaeoz+GAIhfxxXdVJwaA6WDw2XwLtJoxUtWYON1MttFBpeX4AgWOpXMKl3ntGCVh6DpesMmuWrYwCoio6sfkvgqqFn6aNSv2B/ENJPpvNoQU0nPbaa579Cs0zzbeNOZh4jsE5qVEBe2sc9O2vMq1TKzJU8q/s6h3k0KVXrsDG3P6GghcJ9H1Z9yczELYJ82dFW3706iIQeNeQkgvBHspT5o+S3iNx35MW6DvjNMx9yC/uEEGckepIuqWhQS7/+9b85wCZH/3xYwgWt+HLtBilPI1fKszEnPvkYV+Cl2MKZ53b2Osx/UHAE7856hgOr646WrtuKZ7s9+JiQrznMqGjQCoNRPwxWLnozbidYCB3esj0RrUJW8k58HQ0XrVQL1SDM1HozYVjlPG0a75teePHewbuD3kwK9g0hTrfH2z1sNM6n0etJZOyADaX6Af/o/PzYd/rgBJvGnpvfYxqbjDmoe/8MiQb+ca08uo+CTan3655/607qZ/AptcjEF/3zpvkDl6GLz/wer396fn70+xXdgVwv6DtunB8FPGHY6H0b+b2vd/9r7x6sHg2DAIxOJ2lmm83RbyuZb23btm3vxjl+g3vbGDwBFHM4/7oaowygtpN/PQ2AUbAxoIbVkq0oDeDK3ta9pFYLreXCwgDq8/fu9I0u72lpQ5cFcHbpYMvrggHndStREsDsk9P5R2Mzupw8n9l69gJQzpvT+c/uh9HpRmtnB6CsxQFvBOu387+FACjryMH8r7G1K/6bO5rtJXuAsvYdyxavVtZr8dODq/duZov7ATBqperq67N37569amSbo7UAKK5+PYdqXAmAEXD5RQ7RvBoAI+Hs1xyouRIAI+LNnhyguhAAI+Pk7ezr4IEAGCUXdmdPd85cDoDRMrv3UHap3n8JgNEzu3W0kS2q558fB8CIWr96bXvP+VfnX13fvja/HgAAAAAAAAAAAAAAAAAAAAAAAAAAAAAAAAAAAAAAAAAAAAAAAAAAAAAAAAAAAAAAAAAAAAAAAAAAAAAAAAAAAAAAAAAAAAAAAAAAAAAAAAAAAAAAAAAAAAAAAACMh+8Fk73g/0uaMwAAAABJRU5ErkJggg==;" vertex="1" parent="1">
          <mxGeometry x="145.03" y="7.76" width="149.94" height="84.49" as="geometry" />
        </mxCell>
        <mxCell id="lfxfcSa1roLqG3c43I5R-26" value="" style="endArrow=classic;startArrow=classic;html=1;rounded=0;entryX=0.75;entryY=1;entryDx=0;entryDy=0;exitX=0.5;exitY=0;exitDx=0;exitDy=0;" edge="1" parent="1" source="Of4Tf4h-RsJ0xZ4RDa0L-19" target="lfxfcSa1roLqG3c43I5R-24">
          <mxGeometry width="50" height="50" relative="1" as="geometry">
            <mxPoint x="270" y="140" as="sourcePoint" />
            <mxPoint x="320" y="90" as="targetPoint" />
          </mxGeometry>
        </mxCell>
        <mxCell id="lfxfcSa1roLqG3c43I5R-27" value="User Audio" style="text;html=1;align=center;verticalAlign=middle;whiteSpace=wrap;rounded=0;rotation=45;" vertex="1" parent="1">
          <mxGeometry x="284" y="125" width="69" height="35" as="geometry" />
        </mxCell>
        <mxCell id="lfxfcSa1roLqG3c43I5R-28" value="" style="endArrow=classic;html=1;rounded=0;exitX=0;exitY=0.5;exitDx=0;exitDy=0;exitPerimeter=0;" edge="1" parent="1" source="Of4Tf4h-RsJ0xZ4RDa0L-81" target="lfxfcSa1roLqG3c43I5R-24">
          <mxGeometry width="50" height="50" relative="1" as="geometry">
            <mxPoint x="310" y="60" as="sourcePoint" />
            <mxPoint x="360" y="10" as="targetPoint" />
          </mxGeometry>
        </mxCell>
        <mxCell id="lfxfcSa1roLqG3c43I5R-29" value="User Audio" style="text;html=1;align=center;verticalAlign=middle;whiteSpace=wrap;rounded=0;" vertex="1" parent="1">
          <mxGeometry x="295" y="17.5" width="71" height="30" as="geometry" />
        </mxCell>
      </root>
    </mxGraphModel>
  </diagram>
</mxfile>
